<svg width="171" height="153" viewBox="0 0 171 153" fill="none" xmlns="http://www.w3.org/2000/svg">
<path fill-rule="evenodd" clip-rule="evenodd" d="M137.003 0H35.3445V11.2754L0 11.2754V64.1638C0 84.6039 23.8597 101.424 47.2754 103.174C54.9624 111.048 68.4834 116.768 80.5172 119.207V133.03C69.0096 136.41 48.4536 144.349 47.2754 153H126.251C125.061 144.349 102.412 136.399 90.881 133.03V119.207C102.961 116.768 117.088 111.048 124.786 103.174C148.191 101.424 171 84.6039 171 64.1638V11.2754H137.003V0ZM10.8535 21.2974H34.5209V66.8542C34.5209 75.8439 36.9459 84.3961 41.2127 92.0953C23.5051 86.7037 10.8535 72.8145 10.8535 56.563V21.2974ZM103.558 76.861L85.8917 67.5541L68.2066 76.861L71.5833 57.1755L57.2845 43.2425L77.0396 40.3662L85.8917 22.4743L94.7247 40.3662L114.48 43.2425L100.19 57.1755L103.558 76.861ZM129.808 93.5499C134.098 85.5007 136.557 76.5985 136.557 67.1823V21.5911H160.282V56.4318C160.282 73.416 147.573 87.9176 129.808 93.5499Z" fill="white"/>
</svg>
